<svg xmlns="http://www.w3.org/2000/svg" viewBox="0 0 512 512" width="512" height="512">
  <rect width="512" height="512" fill="#ffffff"/>
  
  <!-- QR Code Pattern Simplificado -->
  <g fill="#000000">
    <!-- Cantos de posicionamento -->
    <rect x="50" y="50" width="100" height="100"/>
    <rect x="70" y="70" width="60" height="60" fill="#ffffff"/>
    <rect x="90" y="90" width="20" height="20" fill="#000000"/>
    
    <rect x="362" y="50" width="100" height="100"/>
    <rect x="382" y="70" width="60" height="60" fill="#ffffff"/>
    <rect x="402" y="90" width="20" height="20" fill="#000000"/>
    
    <rect x="50" y="362" width="100" height="100"/>
    <rect x="70" y="382" width="60" height="60" fill="#ffffff"/>
    <rect x="90" y="402" width="20" height="20" fill="#000000"/>
    
    <!-- Padrão de dados simulado -->
    <rect x="200" y="50" width="20" height="20"/>
    <rect x="240" y="50" width="20" height="20"/>
    <rect x="280" y="50" width="20" height="20"/>
    <rect x="320" y="50" width="20" height="20"/>
    
    <rect x="50" y="200" width="20" height="20"/>
    <rect x="90" y="200" width="20" height="20"/>
    <rect x="130" y="200" width="20" height="20"/>
    
    <rect x="200" y="110" width="20" height="20"/>
    <rect x="240" y="110" width="20" height="20"/>
    <rect x="280" y="110" width="20" height="20"/>
    <rect x="320" y="110" width="20" height="20"/>
    
    <rect x="200" y="150" width="20" height="20"/>
    <rect x="280" y="150" width="20" height="20"/>
    
    <rect x="200" y="200" width="20" height="20"/>
    <rect x="240" y="200" width="20" height="20"/>
    <rect x="280" y="200" width="20" height="20"/>
    <rect x="320" y="200" width="20" height="20"/>
    <rect x="360" y="200" width="20" height="20"/>
    <rect x="400" y="200" width="20" height="20"/>
    <rect x="440" y="200" width="20" height="20"/>
    
    <rect x="200" y="240" width="20" height="20"/>
    <rect x="280" y="240" width="20" height="20"/>
    <rect x="360" y="240" width="20" height="20"/>
    <rect x="440" y="240" width="20" height="20"/>
    
    <rect x="200" y="280" width="20" height="20"/>
    <rect x="240" y="280" width="20" height="20"/>
    <rect x="280" y="280" width="20" height="20"/>
    <rect x="320" y="280" width="20" height="20"/>
    <rect x="360" y="280" width="20" height="20"/>
    <rect x="400" y="280" width="20" height="20"/>
    <rect x="440" y="280" width="20" height="20"/>
    
    <rect x="200" y="320" width="20" height="20"/>
    <rect x="280" y="320" width="20" height="20"/>
    <rect x="360" y="320" width="20" height="20"/>
    <rect x="440" y="320" width="20" height="20"/>
    
    <rect x="200" y="360" width="20" height="20"/>
    <rect x="240" y="360" width="20" height="20"/>
    <rect x="280" y="360" width="20" height="20"/>
    <rect x="320" y="360" width="20" height="20"/>
    <rect x="360" y="360" width="20" height="20"/>
    <rect x="400" y="360" width="20" height="20"/>
    
    <rect x="200" y="400" width="20" height="20"/>
    <rect x="280" y="400" width="20" height="20"/>
    <rect x="360" y="400" width="20" height="20"/>
    <rect x="440" y="400" width="20" height="20"/>
    
    <rect x="200" y="440" width="20" height="20"/>
    <rect x="240" y="440" width="20" height="20"/>
    <rect x="320" y="440" width="20" height="20"/>
    <rect x="400" y="440" width="20" height="20"/>
  </g>
</svg>
