<svg xmlns="http://www.w3.org/2000/svg" viewBox="0 0 192 192" width="192" height="192">
  <rect width="192" height="192" fill="#ffffff"/>
  
  <!-- QR Code Pattern Simplificado -->
  <g fill="#000000">
    <!-- Cantos de posicionamento -->
    <rect x="20" y="20" width="40" height="40"/>
    <rect x="28" y="28" width="24" height="24" fill="#ffffff"/>
    <rect x="36" y="36" width="8" height="8" fill="#000000"/>
    
    <rect x="132" y="20" width="40" height="40"/>
    <rect x="140" y="28" width="24" height="24" fill="#ffffff"/>
    <rect x="148" y="36" width="8" height="8" fill="#000000"/>
    
    <rect x="20" y="132" width="40" height="40"/>
    <rect x="28" y="140" width="24" height="24" fill="#ffffff"/>
    <rect x="36" y="148" width="8" height="8" fill="#000000"/>
    
    <!-- Padrão de dados simulado -->
    <rect x="76" y="20" width="8" height="8"/>
    <rect x="92" y="20" width="8" height="8"/>
    <rect x="108" y="20" width="8" height="8"/>
    
    <rect x="20" y="76" width="8" height="8"/>
    <rect x="36" y="76" width="8" height="8"/>
    <rect x="52" y="76" width="8" height="8"/>
    
    <rect x="76" y="44" width="8" height="8"/>
    <rect x="92" y="44" width="8" height="8"/>
    <rect x="108" y="44" width="8" height="8"/>
    <rect x="124" y="44" width="8" height="8"/>
    
    <rect x="76" y="60" width="8" height="8"/>
    <rect x="108" y="60" width="8" height="8"/>
    
    <rect x="76" y="76" width="8" height="8"/>
    <rect x="92" y="76" width="8" height="8"/>
    <rect x="108" y="76" width="8" height="8"/>
    <rect x="124" y="76" width="8" height="8"/>
    <rect x="140" y="76" width="8" height="8"/>
    <rect x="156" y="76" width="8" height="8"/>
    
    <rect x="76" y="92" width="8" height="8"/>
    <rect x="108" y="92" width="8" height="8"/>
    <rect x="140" y="92" width="8" height="8"/>
    
    <rect x="76" y="108" width="8" height="8"/>
    <rect x="92" y="108" width="8" height="8"/>
    <rect x="108" y="108" width="8" height="8"/>
    <rect x="124" y="108" width="8" height="8"/>
    <rect x="140" y="108" width="8" height="8"/>
    <rect x="156" y="108" width="8" height="8"/>
    <rect x="172" y="108" width="8" height="8"/>
    
    <rect x="76" y="124" width="8" height="8"/>
    <rect x="108" y="124" width="8" height="8"/>
    <rect x="140" y="124" width="8" height="8"/>
    <rect x="172" y="124" width="8" height="8"/>
    
    <rect x="76" y="140" width="8" height="8"/>
    <rect x="92" y="140" width="8" height="8"/>
    <rect x="108" y="140" width="8" height="8"/>
    <rect x="124" y="140" width="8" height="8"/>
    <rect x="140" y="140" width="8" height="8"/>
    
    <rect x="76" y="156" width="8" height="8"/>
    <rect x="108" y="156" width="8" height="8"/>
    <rect x="140" y="156" width="8" height="8"/>
    <rect x="172" y="156" width="8" height="8"/>
    
    <rect x="76" y="172" width="8" height="8"/>
    <rect x="92" y="172" width="8" height="8"/>
    <rect x="124" y="172" width="8" height="8"/>
    <rect x="156" y="172" width="8" height="8"/>
  </g>
</svg>
